<svg xmlns="http://www.w3.org/2000/svg" viewBox="0 0 320 64" fill="none">
  <rect x="2" y="2" width="60" height="60" rx="12" fill="#0A66E8" stroke="#0A66E8" stroke-width="4" />
  <path d="M20 44V20h8.5c3.9 0 6.9 1 9 3 2.2 2 3.3 4.7 3.3 8.3 0 3.7-1.1 6.5-3.3 8.6-2.2 2.1-5.2 3.1-9 3.1H20zm6.4-5.5h2.2c2.3 0 4.1-.6 5.3-1.9 1.2-1.3 1.9-3.1 1.9-5.6 0-2.3-.6-4.1-1.9-5.3-1.2-1.3-3-1.9-5.3-1.9h-2.2v14.7z" fill="#fff" />
  <text x="80" y="42" font-family="'Segoe UI', Arial, sans-serif" font-size="34" font-weight="600" fill="#0A1F33">Interview<tspan fill="#0A66E8">Ace</tspan></text>
</svg>